<svg width="97" height="93" viewBox="0 0 97 93" fill="none" xmlns="http://www.w3.org/2000/svg">
<path d="M56.1621 0L48.3295 2.54106H48.3012H48.2822L40.4497 0L32.8252 12.0535L40.3929 36.6328L41.301 19.5067L44.5457 33.8273L48.3012 15.3881L52.0661 33.8273L55.3108 19.5067L56.2189 36.6328L63.7961 12.0535L56.1621 0Z" fill="#FFD600"/>
<path d="M69.6798 91.6958L74.5043 85.0267L74.5232 85.0078L74.5516 84.9984V84.9889L82.3652 82.4195L81.3909 68.1934L60.7499 52.8242L70.1434 67.1826L59.0567 57.5379L66.9271 74.6358L52.9836 61.9777L58.8296 75.4482L47.97 62.1572L56.3985 86.4626L69.6798 91.6958Z" fill="#FFD600"/>
<path d="M14.2463 83.3075L22.1641 85.5463L22.1924 85.5652L22.2114 85.5746L27.3101 92.0359L40.3644 86.2453L47.7524 61.6187L37.4603 75.3443L42.7388 61.6376L29.3439 74.8814L36.486 57.4624L25.8155 67.5699L34.594 52.8242L14.6153 69.053L14.2463 83.3075Z" fill="#FFD600"/>
<path d="M96.6212 40.9972L91.8158 34.3281L91.8063 34.2998L91.7968 34.2714V34.2809L91.8252 26.0531L78.0047 22.4824L56.8718 37.1903L73.483 32.8167L60.8165 40.2793L79.5466 38.2294L63.1152 47.4396L77.7587 46.1455L61.7057 52.2383L87.4643 51.9361L96.6212 40.9972Z" fill="#FFD600"/>
<path d="M4.65457 26.1854L4.75863 34.4037L4.74917 34.432L4.73971 34.4509L-0.0090332 41.1672L9.25196 52.0211L35.0106 52.0872L18.9008 46.1455L33.5632 47.2979L17.0372 38.2389L35.7957 40.1187L23.0536 32.7789L39.7025 36.992L18.4373 22.4824L4.65457 26.1854Z" fill="#FFD600"/>
<path d="M94.2937 81.0582L93.3288 79.7735H92.3828V81.0582H92.0139V77.752H93.4423C94.1707 77.752 94.6437 78.1487 94.6437 78.7438C94.6437 79.3012 94.2653 79.6223 93.745 79.7073L94.7667 81.0582H94.3031H94.2937ZM93.4045 78.1015H92.3828V79.4428H93.4045C93.8964 79.4428 94.2558 79.1878 94.2558 78.7533C94.2558 78.3187 93.9437 78.1015 93.4045 78.1015Z" fill="#FFD600"/>
<path d="M93.0925 83.1369C91.0303 83.1369 89.356 81.4649 89.356 79.4056C89.356 77.3463 91.0303 75.6743 93.0925 75.6743C95.1547 75.6743 96.8291 77.3463 96.8291 79.4056C96.8291 81.4649 95.1547 83.1369 93.0925 83.1369ZM93.0925 75.9672C91.1911 75.9672 89.6397 77.5163 89.6397 79.4151C89.6397 81.3138 91.1911 82.8535 93.0925 82.8535C94.9939 82.8535 96.5358 81.3043 96.5358 79.4151C96.5358 77.5258 94.9844 75.9672 93.0925 75.9672Z" fill="#FFD600"/>
</svg>
